# xmcd
#
# Track frame offsets: 
#        182
#        13425
#        29385
#        41292
#        56510
#        69930
#        81627
#        92787
#        109615
#        123452
#
# Disc length: 1809 seconds
#
# Revision: 3
# Processed by: cddbd v1.5.1PL2 Copyright (c) Steve Scherf et al.
# Submitted via: ExactAudioCopy v0.95b3
#
DISCID=82070f0a
DTITLE=Rhonda Vincent - Trouble Free
DYEAR=1996
DGENRE=Bluegrass
TTITLE0=Somebody
TTITLE1=You Beat All I've Ever Seen
TTITLE2=Trouble Free
TTITLE3=It Ain't Nothin' New
TTITLE4=An Old Memory
TTITLE5=What More Do You Want From Me
TTITLE6=If I Could Stop Loving You
TTITLE7=At The Corner Of Walk And Don't Walk
TTITLE8=The Blues Ain't Workin' On Me
TTITLE9=When I'm Through Fallin' Apart
EXTD=YEAR: 1996 ID3G: 89
EXTT0=
EXTT1=
EXTT2=
EXTT3=
EXTT4=
EXTT5=
EXTT6=
EXTT7=
EXTT8=
EXTT9=
PLAYORDER=
